<?xml version="1.0" encoding="utf-8"?>
<!-- Generator: Adobe Illustrator 25.2.1, SVG Export Plug-In . SVG Version: 6.00 Build 0)  -->
<svg version="1.1" xmlns="http://www.w3.org/2000/svg" xmlns:xlink="http://www.w3.org/1999/xlink" x="0px" y="0px"
	 viewBox="0 0 900 900" style="enable-background:new 0 0 900 900;" xml:space="preserve">
<style type="text/css">
	.st0{fill:#FFF6B3;}
	.st1{fill:none;}
	.st2{fill:#6A80B9;}
	.st3{fill:#155E95;}
	.st4{fill:#FC8D62;}
</style>
<g id="Shp">
	<path class="st0" d="M790,850H110c-33.1,0-60-26.9-60-60V110c0-33.1,26.9-60,60-60h680c33.1,0,60,26.9,60,60v680
		C850,823.1,823.1,850,790,850z"/>
</g>
<g id="Char">
	<g>
		<path class="st1" d="M364.6,364c-13.5-0.6-44.4,9.9-92.7,31.6l92.4,0.2C377.9,375.1,378,364.5,364.6,364z"/>
		<path class="st1" d="M659.6,270c6.7-4.7,17.7-20.5,33-47.5s23-44.5,23-52.5s-7.3-12-22-12c-30.7,1.3-46,6-46,14c0,4.7-2.3,7-7,7
			c-4,0-11.8,6.2-23.5,18.5S599.6,218,599.6,222c0,4.7,8,14.8,24,30.5S651.6,274,659.6,270z"/>
		<path class="st1" d="M349.6,298l-27,23h31c16,0,26.7-2.5,32-7.5c5.3-5,8-15.2,8-30.5C393.6,267,379,272,349.6,298z"/>
		<path class="st1" d="M287.6,337.5c-1.3-1-3.7-1.8-7-2.5c-12.7-5.3-23-5.8-31-1.5c-8,4.3-12,12.2-12,23.5c0,16,11.3,15.3,34-2
			c5.3-4,9.2-6.8,11.5-8.5c2.3-1.7,4-3.3,5-5C289.1,339.9,289,338.5,287.6,337.5z"/>
		<path class="st1" d="M696.6,464c-2,0-3.7,0-5,0c-28.7,4.7-63.7,20.3-105,47l-38,24l50,24c30,14,49.5,19.7,58.5,17
			c9-2.7,20.5-17.7,34.5-45C713,486.4,714.6,464,696.6,464z"/>
		<path class="st2" d="M132.6,479c-18,34.7-30,55.3-36,62c-6,6.7-10.3,16.7-13,30c-3.3,14-10.7,29.5-22,46.5
			c-11.3,17-21,26.8-29,29.5c-8.7,2-16,9.2-22,21.5s-9,25.8-9,40.5c0,20,2.7,30,8,30c8.7-0.7,25.3-25.3,50-74
			c15.3-30.7,31-58.3,47-83c20.7-32.7,40-66,58-100c14.7-26,26.5-44.3,35.5-55c9-10.7,16.8-16,23.5-16c9.3,0,23.7-4.3,43-13
			c1.8-0.8,3.6-1.6,5.3-2.4l-93.2-0.2L132.6,479z"/>
		<path class="st2" d="M348.6,417c-1.3,2-7.7,3.7-19,5c-11.3,1.3-34.7,12.3-70,33c-18,10-31.8,18.2-41.5,24.5
			c-9.7,6.3-17.5,11.8-23.5,16.5c-6,4.7-9.5,8-10.5,10s-0.8,3.7,0.5,5c2.7,4,20,3.2,52-2.5c32-5.7,54-12.2,66-19.5
			c13.3-6.7,28.7-10,46-10c16,0,28.7-4.8,38-14.5c9.3-9.7,19-29.2,29-58.5l3.4-10.1l-54.7-0.1C360.3,402,355.1,409,348.6,417z"/>
		<path class="st3" d="M452.6,249c-5.3-16-20-28-44-36c-14.7-4-27.8-4.2-39.5-0.5c-11.7,3.7-28.8,13.2-51.5,28.5c-3.3,2-7,4.3-11,7
			c-19.3,8-29,8.7-29,2c0-4.7,7.5-17.2,22.5-37.5s27.5-35.5,37.5-45.5c12.7-11.3,20.2-24.3,22.5-39c2.3-14.7-1.5-23.7-11.5-27
			c-12-6-26.5-6-43.5,0s-43.2,19.7-78.5,41c-50,29.3-84.7,48.3-104,57c-19.3,8.7-29,15.3-29,20s6.2,7,18.5,7c12.3,0,26.2-2,41.5-6
			c12-4,30.3-13.7,55-29c24.7-15.3,40.7-27.3,48-36c2.7-3.3,7.3-6.2,14-8.5c6.7-2.3,12.8-3.3,18.5-3c5.7,0.3,8.8,1.8,9.5,4.5
			c0,2-12.5,29.3-37.5,82s-37.5,80.3-37.5,83s-10.7,22.3-32,59l-12.9,23.4l93.2,0.2c48.3-21.7,79.1-32.2,92.7-31.6
			c13.3,0.5,13.2,11.1-0.3,31.8l54.7,0.1l24.6-71.9C455,290,458,265,452.6,249z M288.1,341.5c-1,1.7-2.7,3.3-5,5
			c-2.3,1.7-6.2,4.5-11.5,8.5c-22.7,17.3-34,18-34,2c0-11.3,4-19.2,12-23.5c8-4.3,18.3-3.8,31,1.5c3.3,0.7,5.7,1.5,7,2.5
			C289,338.5,289.1,339.9,288.1,341.5z M385.6,313.5c-5.3,5-16,7.5-32,7.5h-31l27-23c29.3-26,44-31,44-15
			C393.6,298.4,391,308.5,385.6,313.5z"/>
		<path class="st2" d="M405.6,539.5c-2.7-9.7-12-17.2-28-22.5c-18.7-7.3-30.2-10.7-34.5-10c-4.3,0.7-40.8,23.5-109.5,68.5
			S128,643,122.6,643c-2,0-3.3,0-4,0c-5.3,0.7-7,2.7-5,6c3.3,8,13,12.7,29,14c11.3,0.7,29-3,53-11s44.3-17.7,61-29
			c13.3-8,28.2-16,44.5-24c16.3-8,25.5-11.3,27.5-10c3.3,4,2.3,12.8-3,26.5c-5.3,13.7-12.7,24.8-22,33.5c-12.7,12-19.3,27.3-20,46
			c-0.7,18.7,5.3,31,18,37c8,4.7,13.7,6.8,17,6.5c3.3-0.3,8-3.2,14-8.5c11.3-11.3,23.2-27,35.5-47c12.3-20,18.5-34.7,18.5-44
			c0-10.7,4-27.3,12-50C406,565.7,408.3,549.2,405.6,539.5z"/>
		<g>
			<path class="st1" d="M696.6,464c-2,0-3.7,0-5,0c-28.7,4.7-63.7,20.3-105,47l-38,24l50,24c30,14,49.5,19.7,58.5,17
				c9-2.7,20.5-17.7,34.5-45C713,486.4,714.6,464,696.6,464z"/>
			<g>
				<path class="st1" d="M696.6,464c-2,0-3.7,0-5,0c-28.7,4.7-63.7,20.3-105,47l-38,24l50,24c30,14,49.5,19.7,58.5,17
					c9-2.7,20.5-17.7,34.5-45C713,486.4,714.6,464,696.6,464z"/>
				<g>
					<path class="st1" d="M696.6,464c-2,0-3.7,0-5,0c-28.7,4.7-63.7,20.3-105,47l-38,24l50,24c30,14,49.5,19.7,58.5,17
						c9-2.7,20.5-17.7,34.5-45C713,486.4,714.6,464,696.6,464z"/>
					<g>
						<path class="st1" d="M696.6,464c-2,0-3.7,0-5,0c-28.7,4.7-63.7,20.3-105,47l-38,24l50,24c30,14,49.5,19.7,58.5,17
							c9-2.7,20.5-17.7,34.5-45C713,486.4,714.6,464,696.6,464z"/>
						<g>
							<path class="st1" d="M696.6,464c-2,0-3.7,0-5,0c-28.7,4.7-63.7,20.3-105,47l-38,24l50,24c30,14,49.5,19.7,58.5,17
								c9-2.7,20.5-17.7,34.5-45C713,486.4,714.6,464,696.6,464z"/>
							<path class="st3" d="M884.1,731.5c-11.7-18.3-24.7-31.3-39-39s-29.5-17.8-45.5-30.5s-26.8-19-32.5-19s-15.2-5.3-28.5-16
								l-18-16l24-55c11.3-25.3,18-42.2,20-50.5c2-8.3,1-18.8-3-31.5c-4.7-16.7-10.7-29.7-18-39c-8-9.3-21.3-17.8-40-25.5
								c-18.7-7.7-32.3-10.2-41-7.5c-10,2-15,0.3-15-5c0-0.2,0-0.4,0.1-0.6l-93.7-0.2c-0.7,1.9-1.5,3.8-2.3,5.8
								c-13.3,30-28,54.8-44,74.5c-16,19.7-30.3,29.5-43,29.5c-0.5,0-0.9,0-1.3,0c-5.9,0.2-9.4,1.9-10.7,5c-1.3,3.3-1.3,12.7,0,28
								c2,21.3,4.3,33.2,7,35.5c0.7,0.6,1.8,1.1,3.3,1.5c4.3,1.2,11.9,1.5,22.7,1c13.3-1.3,35.2,6.5,65.5,23.5s45.5,29.8,45.5,38.5
								c0,5.3-12.5,14.3-37.5,27s-45.8,20.3-62.5,23c-10.2,1.6-21.6,0-34.4-4.8c-8.2-3.1-16.9-7.5-26.1-13.2
								c-23.7-14.7-36.5-20.7-38.5-18c-4,2.7,3,17.3,21,44c1.8,1.8,16.3,5.1,43.5,9.7c2.4,0.4,4.9,0.8,7.5,1.3
								c30.7,5.3,61.5,6.2,92.5,2.5s57.8-11.2,80.5-22.5c16-8,26.5-12.3,31.5-13s13.2,1.7,24.5,7c15.3,8.7,36.7,22.2,64,40.5
								s49,34.5,65,48.5c17.3,15.3,32.7,25.3,46,30c9.3,2.7,15,3.2,17,1.5s4.3-7.8,7-18.5C900.3,767.4,895.8,749.9,884.1,731.5z
								 M691.6,531c-14,27.3-25.5,42.3-34.5,45c-9,2.7-28.5-3-58.5-17l-50-24l38-24c41.3-26.7,76.3-42.3,105-47c1.3,0,3,0,5,0
								C714.6,464,713,486.4,691.6,531z"/>
						</g>
					</g>
				</g>
			</g>
		</g>
		<path class="st4" d="M667.1,365c13-17.3,26.2-32.7,39.5-46c12-12,23.7-32.8,35-62.5s15.7-52.5,13-68.5c-3.3-25.3-16-43.5-38-54.5
			s-48.3-12.2-79-3.5c-14,4-33.7,14-59,30s-48.7,29.7-70,41c-17.3,8-28.5,16-33.5,24s-4.2,17.3,2.5,28c4,7.3,8.7,11.5,14,12.5
			c5.3,1,16.3,0.8,33-0.5l39-3l5,43c2,19.3,2.2,34.2,0.5,44.5c-1.5,9.5-6.6,25.1-15.2,46.7l93.7,0.2
			C648.2,392.1,654.7,381.6,667.1,365z M599.6,222c0-4,5.8-12.2,17.5-24.5s19.5-18.5,23.5-18.5c4.7,0,7-2.3,7-7c0-8,15.3-12.7,46-14
			c14.7,0,22,4,22,12s-7.7,25.5-23,52.5s-26.3,42.8-33,47.5c-8,4-20-1.8-36-17.5S599.6,226.7,599.6,222z"/>
	</g>
</g>
</svg>
