<?xml version="1.0" encoding="UTF-8" standalone="no"?>
<!DOCTYPE svg PUBLIC "-//W3C//DTD SVG 1.1//EN" "http://www.w3.org/Graphics/SVG/1.1/DTD/svg11.dtd">
<!-- Created with Vectornator (http://vectornator.io/) -->
<svg height="100%" stroke-miterlimit="10" style="fill-rule:nonzero;clip-rule:evenodd;stroke-linecap:round;stroke-linejoin:round;" version="1.1" viewBox="0 0 1024 1024" width="100%" xml:space="preserve" xmlns="http://www.w3.org/2000/svg" xmlns:xlink="http://www.w3.org/1999/xlink">
<defs/>
<rect width="100%" height="100%" fill="white" /> 
<g id="layer-1">
<path d="M342.5 510.442C322.5 513.775 305.333 516.775 291 519.442C276.667 522.108 260.5 525.442 242.5 529.442C241.167 543.442 239.667 560.108 238 579.442C236.333 598.775 234.5 615.108 232.5 628.442C252.5 625.775 272.167 621.608 291.5 615.942C310.833 610.275 325.5 604.108 335.5 597.442C348.167 589.442 358.5 585.108 366.5 584.442C374.5 583.775 385.5 586.442 399.5 592.442C420.833 601.775 433.333 609.942 437 616.942C440.667 623.942 439.167 630.775 432.5 637.442C427.833 642.108 424 647.275 421 652.942C418 658.608 415.5 665.775 413.5 674.442C411.5 683.108 409.833 693.608 408.5 705.942C407.167 718.275 405.833 733.775 404.5 752.442C402.5 777.775 395 802.608 382 826.942C369 851.275 355.167 870.775 340.5 885.442C331.833 894.108 323.833 898.108 316.5 897.442C309.167 896.775 304.833 892.775 303.5 885.442C302.167 879.442 300.5 873.775 298.5 868.442C296.5 863.108 294 857.775 291 852.442C288 847.108 284 841.108 279 834.442C274 827.775 267.5 820.108 259.5 811.442C252.167 803.442 250.167 797.942 253.5 794.942C256.833 791.942 265.167 793.108 278.5 798.442C290.5 803.775 300 807.442 307 809.442C314 811.442 319.667 812.108 324 811.442C328.333 810.775 331.667 808.442 334 804.442C336.333 800.442 339.167 794.775 342.5 787.442C349.833 769.442 355.167 748.442 358.5 724.442C361.833 700.442 363.167 676.442 362.5 652.442C362.5 643.108 359.833 637.775 354.5 636.442C349.167 635.108 336.833 637.442 317.5 643.442C299.5 649.442 283.5 652.942 269.5 653.942C255.5 654.942 241.833 653.775 228.5 650.442C217.167 715.108 198.167 768.775 171.5 811.442C144.833 854.108 112.167 888.775 73.5 915.442C61.5 924.108 54.3333 926.942 52 923.942C49.6667 920.942 52.8333 914.442 61.5 904.442C84.8333 877.108 104.5 850.442 120.5 824.442C136.5 798.442 149.833 770.442 160.5 740.442C171.167 710.442 179.167 677.108 184.5 640.442C189.833 603.775 193.833 561.108 196.5 512.442C197.167 497.108 197 479.775 196 460.442C195 441.108 193.5 422.442 191.5 404.442C189.5 386.442 187 370.442 184 356.442C181 342.442 178.167 333.442 175.5 329.442C165.5 314.775 164.5 304.608 172.5 298.942C180.5 293.275 197.5 297.108 223.5 310.442C226.833 310.442 230.5 310.275 234.5 309.942C238.5 309.608 242.5 309.108 246.5 308.442C263.167 276.442 276.167 250.275 285.5 229.942C294.833 209.608 301.667 193.442 306 181.442C310.333 169.442 312.667 160.442 313 154.442C313.333 148.442 312.833 143.442 311.5 139.442C306.167 128.108 307.5 120.442 315.5 116.442C323.5 112.442 336.833 115.775 355.5 126.442C379.5 139.775 393.333 150.108 397 157.442C400.667 164.775 397.833 171.775 388.5 178.442C383.833 181.775 379.167 185.608 374.5 189.942C369.833 194.275 363.667 200.775 356 209.442C348.333 218.108 338.167 229.942 325.5 244.942C312.833 259.942 296.5 279.775 276.5 304.442C331.167 295.108 367.167 284.442 384.5 272.442C393.167 267.108 401.333 264.442 409 264.442C416.667 264.442 428.167 268.775 443.5 277.442C453.5 282.775 461.167 287.442 466.5 291.442C471.833 295.442 475.333 299.108 477 302.442C478.667 305.775 478.833 309.275 477.5 312.942C476.167 316.608 473.833 320.775 470.5 325.442C463.167 336.108 457.167 347.442 452.5 359.442C447.833 371.442 442.833 390.108 437.5 415.442C430.167 449.442 420.833 479.775 409.5 506.442C405.5 515.775 400 521.108 393 522.442C386 523.775 380.167 522.108 375.5 517.442C372.167 514.108 367.333 511.775 361 510.442C354.667 509.108 348.5 509.108 342.5 510.442ZM944.5 850.442C957.833 853.775 963.833 858.275 962.5 863.942C961.167 869.608 951.167 873.108 932.5 874.442C896.5 877.775 867.833 879.775 846.5 880.442C825.167 881.108 808.5 880.775 796.5 879.442C784.5 878.108 775.5 875.608 769.5 871.942C763.5 868.275 757.833 863.108 752.5 856.442C734.5 833.775 718.5 813.608 704.5 795.942C690.5 778.275 677.167 761.108 664.5 744.442C625.833 779.775 586.667 805.775 547 822.442C507.333 839.108 468.5 848.442 430.5 850.442C414.5 851.775 406.167 850.608 405.5 846.942C404.833 843.275 411.833 839.108 426.5 834.442C472.5 819.775 513.333 801.442 549 779.442C584.667 757.442 614.5 733.775 638.5 708.442C622.5 685.775 608.833 666.942 597.5 651.942C586.167 636.942 576.5 624.442 568.5 614.442C560.5 604.442 553.5 596.275 547.5 589.942C541.5 583.608 535.167 577.775 528.5 572.442C519.167 574.442 508.167 572.108 495.5 565.442C483.5 560.108 478.167 555.108 479.5 550.442C480.833 545.775 488.167 542.775 501.5 541.442C511.5 540.775 526.5 538.275 546.5 533.942C566.5 529.608 586.833 524.942 607.5 519.942C628.167 514.942 646.833 509.942 663.5 504.942C680.167 499.942 690.5 496.108 694.5 493.442C705.833 485.442 716.667 481.442 727 481.442C737.333 481.442 750.833 485.775 767.5 494.442C787.5 505.108 798.667 513.442 801 519.442C803.333 525.442 800.833 532.442 793.5 540.442C781.5 553.108 770.5 571.108 760.5 594.442C749.167 620.442 737.833 643.275 726.5 662.942C715.167 682.608 704.5 698.775 694.5 711.442C711.833 728.775 729.5 744.442 747.5 758.442C765.5 772.442 784.5 784.942 804.5 795.942C824.5 806.942 846 816.942 869 825.942C892 834.942 917.167 843.108 944.5 850.442ZM594.5 262.442C595.167 293.775 593.667 321.442 590 345.442C586.333 369.442 580 390.942 571 409.942C562 428.942 550 445.775 535 460.442C520 475.108 501.5 489.108 479.5 502.442C462.833 512.442 452.667 515.442 449 511.442C445.333 507.442 450.5 499.108 464.5 486.442C487.167 465.775 505.167 443.942 518.5 420.942C531.833 397.942 539.833 374.108 542.5 349.442C545.167 325.442 545.167 304.775 542.5 287.442C539.833 270.108 534.833 257.108 527.5 248.442C516.167 235.108 514.333 225.942 522 220.942C529.667 215.942 548.5 220.108 578.5 233.442C602.5 230.775 623.667 226.275 642 219.942C660.333 213.608 674.833 205.108 685.5 194.442C695.5 184.442 704.167 178.608 711.5 176.942C718.833 175.275 730.833 177.775 747.5 184.442C772.833 194.442 786.833 203.442 789.5 211.442C792.167 219.442 785.833 228.775 770.5 239.442C759.167 247.442 749.833 259.442 742.5 275.442C735.167 291.442 731.167 310.442 730.5 332.442C729.833 357.775 733.833 373.608 742.5 379.942C751.167 386.275 766.833 385.775 789.5 378.442C801.5 374.442 811.5 371.442 819.5 369.442C827.5 367.442 834.167 366.275 839.5 365.942C844.833 365.608 849.667 366.108 854 367.442C858.333 368.775 863.167 370.442 868.5 372.442C879.833 377.775 885.667 384.608 886 392.942C886.333 401.275 880.167 408.108 867.5 413.442C859.5 416.775 849.667 419.608 838 421.942C826.333 424.275 814.5 426.108 802.5 427.442C790.5 428.775 779 429.442 768 429.442C757 429.442 748.5 428.442 742.5 426.442C710.5 417.108 692.5 399.775 688.5 374.442C687.167 369.108 686.667 361.442 687 351.442C687.333 341.442 688 330.942 689 319.942C690 308.942 691.333 297.775 693 286.442C694.667 275.108 696.5 265.442 698.5 257.442C701.833 246.775 702.667 240.442 701 238.442C699.333 236.442 693.833 237.108 684.5 240.442C663.833 247.775 646.667 252.942 633 255.942C619.333 258.942 606.5 261.108 594.5 262.442ZM662.5 677.442C673.167 660.775 683 641.608 692 619.942C701 598.275 708.167 576.442 713.5 554.442C716.167 543.108 716 536.275 713 533.942C710 531.608 701.5 531.108 687.5 532.442C670.167 534.442 651 537.942 630 542.942C609 547.942 584.5 555.108 556.5 564.442C566.5 571.108 575.5 578.275 583.5 585.942C591.5 593.608 600.167 603.108 609.5 614.442C618.833 625.775 628 636.775 637 647.442C646 658.108 654.5 668.108 662.5 677.442ZM308.5 328.442C297.167 331.108 286 333.108 275 334.442C264 335.775 251.833 336.442 238.5 336.442C239.833 349.108 240.667 361.608 241 373.942C241.333 386.275 241.833 398.108 242.5 409.442C263.167 402.775 281 397.442 296 393.442C311 389.442 324.167 386.275 335.5 383.942C346.833 381.608 357 380.442 366 380.442C375 380.442 384.167 381.108 393.5 382.442C394.833 374.442 395.833 366.442 396.5 358.442C397.167 350.442 398.167 342.108 399.5 333.442C400.833 323.442 399.333 317.442 395 315.442C390.667 313.442 381.833 313.442 368.5 315.442C363.167 316.775 355 318.442 344 320.442C333 322.442 321.167 325.108 308.5 328.442ZM378.5 466.442C381.167 455.108 383.333 444.275 385 433.942C386.667 423.608 388.5 413.442 390.5 403.442C362.5 410.775 335 416.775 308 421.442C281 426.108 259.5 428.442 243.5 428.442L243.5 502.442C281.5 492.442 309 485.942 326 482.942C343 479.942 353.5 479.775 357.5 482.442C362.167 485.108 366.333 485.442 370 483.442C373.667 481.442 376.5 475.775 378.5 466.442Z" fill="#000000" opacity="1" stroke="none"/>
</g>
</svg>
